<?xml version="1.0" encoding="UTF-8" standalone="no"?>
<!DOCTYPE svg PUBLIC "-//W3C//DTD SVG 1.1//EN"
 "http://www.w3.org/Graphics/SVG/1.1/DTD/svg11.dtd">
<!-- Generated by graphviz version 2.43.0 (0)
 -->
<!-- Title: %3 Pages: 1 -->
<svg width="1307pt" height="260pt"
 viewBox="0.00 0.00 1307.38 260.00" xmlns="http://www.w3.org/2000/svg" xmlns:xlink="http://www.w3.org/1999/xlink">
<g id="graph0" class="graph" transform="scale(1 1) rotate(0) translate(4 256)">
<title>%3</title>
<polygon fill="white" stroke="transparent" points="-4,4 -4,-256 1303.38,-256 1303.38,4 -4,4"/>
<!-- [root] aws_instance.webserver (expand) -->
<g id="node1" class="node">
<title>[root] aws_instance.webserver (expand)</title>
<polygon fill="none" stroke="black" points="973.88,-108 782.88,-108 782.88,-72 973.88,-72 973.88,-108"/>
<text text-anchor="middle" x="878.38" y="-86.3" font-family="Times,serif" font-size="14.00">aws_instance.webserver</text>
</g>
<!-- [root] provider[&quot;registry.terraform.io/hashicorp/aws&quot;] -->
<g id="node2" class="node">
<title>[root] provider[&quot;registry.terraform.io/hashicorp/aws&quot;]</title>
<polygon fill="none" stroke="black" points="325.38,-36 0.12,-18 325.38,0 650.65,-18 325.38,-36"/>
<text text-anchor="middle" x="325.38" y="-14.3" font-family="Times,serif" font-size="14.00">provider[&quot;registry.terraform.io/hashicorp/aws&quot;]</text>
</g>
<!-- [root] aws_instance.webserver (expand)&#45;&gt;[root] provider[&quot;registry.terraform.io/hashicorp/aws&quot;] -->
<g id="edge1" class="edge">
<title>[root] aws_instance.webserver (expand)&#45;&gt;[root] provider[&quot;registry.terraform.io/hashicorp/aws&quot;]</title>
<path fill="none" stroke="black" d="M782.69,-76.89C683.96,-64.39 530.47,-44.96 428.95,-32.11"/>
<polygon fill="black" stroke="black" points="429.34,-28.63 418.98,-30.85 428.46,-35.58 429.34,-28.63"/>
</g>
<!-- [root] var.ami -->
<g id="node3" class="node">
<title>[root] var.ami</title>
<polygon fill="none" stroke="black" points="731.88,-36 668.88,-36 668.88,0 737.88,0 737.88,-30 731.88,-36"/>
<polyline fill="none" stroke="black" points="731.88,-36 731.88,-30 "/>
<polyline fill="none" stroke="black" points="737.88,-30 731.88,-30 "/>
<text text-anchor="middle" x="703.38" y="-14.3" font-family="Times,serif" font-size="14.00">var.ami</text>
</g>
<!-- [root] aws_instance.webserver (expand)&#45;&gt;[root] var.ami -->
<g id="edge2" class="edge">
<title>[root] aws_instance.webserver (expand)&#45;&gt;[root] var.ami</title>
<path fill="none" stroke="black" d="M835.57,-71.88C808.9,-61.21 774.65,-47.51 747.69,-36.72"/>
<polygon fill="black" stroke="black" points="748.7,-33.36 738.12,-32.9 746.1,-39.86 748.7,-33.36"/>
</g>
<!-- [root] var.createby -->
<g id="node4" class="node">
<title>[root] var.createby</title>
<polygon fill="none" stroke="black" points="854.88,-36 755.88,-36 755.88,0 860.88,0 860.88,-30 854.88,-36"/>
<polyline fill="none" stroke="black" points="854.88,-36 854.88,-30 "/>
<polyline fill="none" stroke="black" points="860.88,-30 854.88,-30 "/>
<text text-anchor="middle" x="808.38" y="-14.3" font-family="Times,serif" font-size="14.00">var.createby</text>
</g>
<!-- [root] aws_instance.webserver (expand)&#45;&gt;[root] var.createby -->
<g id="edge3" class="edge">
<title>[root] aws_instance.webserver (expand)&#45;&gt;[root] var.createby</title>
<path fill="none" stroke="black" d="M861.08,-71.7C852.52,-63.14 842.04,-52.66 832.69,-43.3"/>
<polygon fill="black" stroke="black" points="835.03,-40.7 825.49,-36.1 830.08,-45.65 835.03,-40.7"/>
</g>
<!-- [root] var.instance_type -->
<g id="node6" class="node">
<title>[root] var.instance_type</title>
<polygon fill="none" stroke="black" points="1013.88,-36 878.88,-36 878.88,0 1019.88,0 1019.88,-30 1013.88,-36"/>
<polyline fill="none" stroke="black" points="1013.88,-36 1013.88,-30 "/>
<polyline fill="none" stroke="black" points="1019.88,-30 1013.88,-30 "/>
<text text-anchor="middle" x="949.38" y="-14.3" font-family="Times,serif" font-size="14.00">var.instance_type</text>
</g>
<!-- [root] aws_instance.webserver (expand)&#45;&gt;[root] var.instance_type -->
<g id="edge4" class="edge">
<title>[root] aws_instance.webserver (expand)&#45;&gt;[root] var.instance_type</title>
<path fill="none" stroke="black" d="M895.93,-71.7C904.62,-63.14 915.24,-52.66 924.73,-43.3"/>
<polygon fill="black" stroke="black" points="927.37,-45.62 932.03,-36.1 922.45,-40.63 927.37,-45.62"/>
</g>
<!-- [root] var.key_name -->
<g id="node7" class="node">
<title>[root] var.key_name</title>
<polygon fill="none" stroke="black" points="1144.88,-36 1037.88,-36 1037.88,0 1150.88,0 1150.88,-30 1144.88,-36"/>
<polyline fill="none" stroke="black" points="1144.88,-36 1144.88,-30 "/>
<polyline fill="none" stroke="black" points="1150.88,-30 1144.88,-30 "/>
<text text-anchor="middle" x="1094.38" y="-14.3" font-family="Times,serif" font-size="14.00">var.key_name</text>
</g>
<!-- [root] aws_instance.webserver (expand)&#45;&gt;[root] var.key_name -->
<g id="edge5" class="edge">
<title>[root] aws_instance.webserver (expand)&#45;&gt;[root] var.key_name</title>
<path fill="none" stroke="black" d="M930.95,-71.97C961.39,-62.1 999.89,-49.62 1031.88,-39.25"/>
<polygon fill="black" stroke="black" points="1033.15,-42.52 1041.58,-36.11 1030.99,-35.86 1033.15,-42.52"/>
</g>
<!-- [root] var.web&#45;servers -->
<g id="node8" class="node">
<title>[root] var.web&#45;servers</title>
<polygon fill="none" stroke="black" points="1293.38,-36 1169.38,-36 1169.38,0 1299.38,0 1299.38,-30 1293.38,-36"/>
<polyline fill="none" stroke="black" points="1293.38,-36 1293.38,-30 "/>
<polyline fill="none" stroke="black" points="1299.38,-30 1293.38,-30 "/>
<text text-anchor="middle" x="1234.38" y="-14.3" font-family="Times,serif" font-size="14.00">var.web&#45;servers</text>
</g>
<!-- [root] aws_instance.webserver (expand)&#45;&gt;[root] var.web&#45;servers -->
<g id="edge6" class="edge">
<title>[root] aws_instance.webserver (expand)&#45;&gt;[root] var.web&#45;servers</title>
<path fill="none" stroke="black" d="M974.18,-71.98C1026.28,-62.49 1092.07,-50.13 1159.14,-36.22"/>
<polygon fill="black" stroke="black" points="1159.97,-39.62 1169.04,-34.16 1158.54,-32.77 1159.97,-39.62"/>
</g>
<!-- [root] var.instance_name -->
<g id="node5" class="node">
<title>[root] var.instance_name</title>
<polygon fill="none" stroke="black" points="562.88,-180 419.88,-180 419.88,-144 568.88,-144 568.88,-174 562.88,-180"/>
<polyline fill="none" stroke="black" points="562.88,-180 562.88,-174 "/>
<polyline fill="none" stroke="black" points="568.88,-174 562.88,-174 "/>
<text text-anchor="middle" x="494.38" y="-158.3" font-family="Times,serif" font-size="14.00">var.instance_name</text>
</g>
<!-- [root] provider[&quot;registry.terraform.io/hashicorp/aws&quot;] (close) -->
<g id="node9" class="node">
<title>[root] provider[&quot;registry.terraform.io/hashicorp/aws&quot;] (close)</title>
<ellipse fill="none" stroke="black" cx="878.38" cy="-162" rx="291.65" ry="18"/>
<text text-anchor="middle" x="878.38" y="-158.3" font-family="Times,serif" font-size="14.00">[root] provider[&quot;registry.terraform.io/hashicorp/aws&quot;] (close)</text>
</g>
<!-- [root] provider[&quot;registry.terraform.io/hashicorp/aws&quot;] (close)&#45;&gt;[root] aws_instance.webserver (expand) -->
<g id="edge7" class="edge">
<title>[root] provider[&quot;registry.terraform.io/hashicorp/aws&quot;] (close)&#45;&gt;[root] aws_instance.webserver (expand)</title>
<path fill="none" stroke="black" d="M878.38,-143.7C878.38,-135.98 878.38,-126.71 878.38,-118.11"/>
<polygon fill="black" stroke="black" points="881.88,-118.1 878.38,-108.1 874.88,-118.1 881.88,-118.1"/>
</g>
<!-- [root] root -->
<g id="node10" class="node">
<title>[root] root</title>
<ellipse fill="none" stroke="black" cx="686.38" cy="-234" rx="58.49" ry="18"/>
<text text-anchor="middle" x="686.38" y="-230.3" font-family="Times,serif" font-size="14.00">[root] root</text>
</g>
<!-- [root] root&#45;&gt;[root] var.instance_name -->
<g id="edge9" class="edge">
<title>[root] root&#45;&gt;[root] var.instance_name</title>
<path fill="none" stroke="black" d="M650.27,-219.83C622.31,-209.64 583.07,-195.33 550.95,-183.62"/>
<polygon fill="black" stroke="black" points="551.83,-180.22 541.24,-180.08 549.43,-186.8 551.83,-180.22"/>
</g>
<!-- [root] root&#45;&gt;[root] provider[&quot;registry.terraform.io/hashicorp/aws&quot;] (close) -->
<g id="edge8" class="edge">
<title>[root] root&#45;&gt;[root] provider[&quot;registry.terraform.io/hashicorp/aws&quot;] (close)</title>
<path fill="none" stroke="black" d="M722.5,-219.83C750.65,-209.57 790.25,-195.13 822.49,-183.38"/>
<polygon fill="black" stroke="black" points="824.04,-186.54 832.24,-179.82 821.64,-179.96 824.04,-186.54"/>
</g>
</g>
</svg>
